# xmcd
#
# Track frame offsets:
#	150
#	2727
#	11382
#	25062
#	37335
#	51837
#	65237
#	82267
#	97487
#	106187
#	117035
#	139160
#	150612
#	162502
#	169438
#
# Disc length: 2431 seconds
#
# Revision: 1
# Processed by: cddbd v1.4PL0 Copyright (c) Steve Scherf et al.
# Submitted via: EasyCDDAExtractor 5.1.0
#
DISCID=d1097d0f
DTITLE=Jim Suhler - Dirt Road
DYEAR=2002
DGENRE=Blues
TTITLE0=Swamp Call
TTITLE1=Holly Ridge
TTITLE2=Country Girl 
TTITLE3=Walking On The Water 
TTITLE4=Texas Easy Street 
TTITLE5=Church Bell Blues 
TTITLE6=Shake Hands With The Blues 
TTITLE7=Dallas 
TTITLE8=Spanish Flangdang 
TTITLE9=My Morning Prayer 
TTITLE10=Out On The Western Plain 
TTITLE11=High Cotton 
TTITLE12=Tryin' To Get Back Home 
TTITLE13=Lauri 
TTITLE14=Dust Devil 
EXTD=
EXTT0=
EXTT1=
EXTT2=
EXTT3=
EXTT4=
EXTT5=
EXTT6=
EXTT7=
EXTT8=
EXTT9=
EXTT10=
EXTT11=
EXTT12=
EXTT13=
EXTT14=
PLAYORDER=
